<svg width="97" height="96" viewBox="0 0 97 96" fill="none" xmlns="http://www.w3.org/2000/svg">
<g clip-path="url(#clip0_11_173)">
<path d="M24.5 94.92L12.5 86.432V29.632L24.5 35.068V94.92ZM32.5 35.5V96L84.5 88.184V28L32.5 35.5ZM56.352 4C47.964 4 40.52 12.02 40.504 21.064L40.5 27.796C40.5 29.016 41.592 29.956 42.8 29.772C43.776 29.624 44.5 28.784 44.5 27.796V21.072C44.512 14.232 50.164 8 56.352 8C58.5 8 60.416 8.78 61.888 10.256C63.576 11.948 64.504 14.396 64.5 17.164V24.152C64.5 25.372 65.592 26.312 66.8 26.128C67.772 25.98 68.492 25.144 68.492 24.16L68.5 17.164C68.508 9.548 63.22 4 56.352 4ZM30.792 27.98C31.772 27.832 32.5 26.992 32.5 26V17.072C32.508 10.232 38.164 4 44.352 4L45 4.06C46.464 2.928 48.06 2.008 49.752 1.328C48.132 0.5 46.32 0 44.352 0C35.968 0 28.52 8.02 28.504 17.064V26.004C28.504 27.228 29.592 28.156 30.792 27.98Z" fill="#00704A"/>
</g>
<defs>
<clipPath id="clip0_11_173">
<rect width="96" height="96" fill="white" transform="translate(0.5)"/>
</clipPath>
</defs>
</svg>
