<svg width="147" height="146" viewBox="0 0 147 146" fill="none" xmlns="http://www.w3.org/2000/svg">
<g opacity="0.5">
<path opacity="0.5" d="M74.5 146C123.377 146 163 108.84 163 63C163 17.1604 123.377 -20 74.5 -20C25.6228 -20 -14 17.1604 -14 63C-14 108.84 25.6228 146 74.5 146Z" fill="url(#paint0_linear_89_478)"/>
</g>
<path d="M74.6724 143.72C122.519 143.72 161.306 107.343 161.306 62.4703C161.306 17.5974 122.519 -18.7793 74.6724 -18.7793C26.826 -18.7793 -11.9612 17.5974 -11.9612 62.4703C-11.9612 107.343 26.826 143.72 74.6724 143.72Z" fill="#F5F5F5"/>
<path d="M74.7538 144.041C91.682 144.067 108.244 139.418 122.374 130.675C119.181 114.313 107.032 113.381 107.032 113.381H40.0359C40.0359 113.381 28.5715 114.263 24.9909 129.315C39.559 138.926 56.9427 144.07 74.7538 144.041Z" fill="#37D39B"/>
<path d="M73.8333 99.9748C96.9274 99.9748 115.649 82.4168 115.649 60.7579C115.649 39.099 96.9274 21.541 73.8333 21.541C50.7392 21.541 32.0177 39.099 32.0177 60.7579C32.0177 82.4168 50.7392 99.9748 73.8333 99.9748Z" fill="#333333"/>
<path opacity="0.1" d="M60.3372 93.4219H87.1307V113.525C87.1307 116.856 85.7199 120.051 83.2087 122.408C80.6974 124.764 77.2912 126.088 73.739 126.089C70.186 126.089 66.7785 124.765 64.2661 122.409C61.7538 120.053 60.3423 116.857 60.3423 113.525V93.4219H60.3372Z" fill="black"/>
<path d="M61.187 92.4902H86.2915C86.5168 92.4902 86.7329 92.5742 86.8922 92.7236C87.0515 92.873 87.141 93.0756 87.141 93.2869V112.593C87.1414 114.244 86.7949 115.878 86.1215 117.403C85.4481 118.928 84.4609 120.314 83.2163 121.481C81.9718 122.648 80.4942 123.573 78.8681 124.205C77.242 124.836 75.4992 125.16 73.7392 125.16C70.1862 125.16 66.7787 123.836 64.2663 121.48C61.754 119.124 60.3425 115.928 60.3425 112.596V93.2869C60.3425 93.0765 60.4313 92.8745 60.5895 92.7253C60.7478 92.576 60.9625 92.4915 61.187 92.4902Z" fill="#FDB797"/>
<path opacity="0.1" d="M60.3858 102.911C69.0211 105.937 78.5264 105.962 87.1792 102.98V99.8887H60.3858V102.911Z" fill="black"/>
<path d="M73.8331 104.593C95.0436 104.593 112.238 88.4671 112.238 68.5748C112.238 48.6825 95.0436 32.5566 73.8331 32.5566C52.6226 32.5566 35.4282 48.6825 35.4282 68.5748C35.4282 88.4671 52.6226 104.593 73.8331 104.593Z" fill="#FDB797"/>
<path opacity="0.1" d="M46.4765 35.8121C46.4765 35.8121 62.6626 66.6244 108.32 48.7306L97.6899 33.0986L78.8462 26.7559L46.4765 35.8121Z" fill="black"/>
<path d="M46.4765 35.3599C46.4765 35.3599 62.6626 66.1721 108.32 48.2736L97.6899 32.6416L78.8462 26.2988L46.4765 35.3599Z" fill="#333333"/>
<path d="M46.3345 33.2728C47.4259 30.1043 49.3121 27.2278 51.8347 24.8848C59.3889 17.8809 71.7738 16.404 78.1261 8.41797C79.6475 10.6345 78.4709 14.0425 75.8438 14.9938C81.9298 14.9557 88.9819 14.4563 92.423 9.76166C93.2734 11.6184 93.5445 13.6634 93.2047 15.6589C92.8649 17.6544 91.9281 19.5185 90.5034 21.0344C95.8971 21.2723 101.661 24.6969 102.001 29.7506C102.234 33.1182 99.9721 36.305 97.0331 38.2361C94.0941 40.1672 90.5135 41.0543 87.0014 41.7797C76.7466 43.9034 39.6425 52.7909 46.3345 33.2728Z" fill="#333333"/>
<path d="M35.4131 74.8243C37.3864 74.8243 38.9861 72.0112 38.9861 68.5411C38.9861 65.0709 37.3864 62.2578 35.4131 62.2578C33.4398 62.2578 31.8401 65.0709 31.8401 68.5411C31.8401 72.0112 33.4398 74.8243 35.4131 74.8243Z" fill="#FDB797"/>
<path d="M112.233 74.8243C114.206 74.8243 115.806 72.0112 115.806 68.5411C115.806 65.0709 114.206 62.2578 112.233 62.2578C110.26 62.2578 108.66 65.0709 108.66 68.5411C108.66 72.0112 110.26 74.8243 112.233 74.8243Z" fill="#FDB797"/>
<defs>
<linearGradient id="paint0_linear_89_478" x1="74.5" y1="146" x2="74.5" y2="-20" gradientUnits="userSpaceOnUse">
<stop stop-color="#808080" stop-opacity="0.25"/>
<stop offset="0.54" stop-color="#808080" stop-opacity="0.12"/>
<stop offset="1" stop-color="#808080" stop-opacity="0.1"/>
</linearGradient>
</defs>
</svg>
